<?xml version="1.0" encoding="UTF-8"?>
<!DOCTYPE svg PUBLIC "-//W3C//DTD SVG 1.1//EN" "http://www.w3.org/Graphics/SVG/1.1/DTD/svg11.dtd">
<!-- Creator: CorelDRAW -->
<svg xmlns="http://www.w3.org/2000/svg" xml:space="preserve" width="30mm" height="30mm" version="1.1" style="shape-rendering:geometricPrecision; text-rendering:geometricPrecision; image-rendering:optimizeQuality; fill-rule:evenodd; clip-rule:evenodd"
viewBox="0 0 3000 3000"
 xmlns:xlink="http://www.w3.org/1999/xlink"
 xmlns:xodm="http://www.corel.com/coreldraw/odm/2003">
 <defs>
  <style type="text/css">
   <![CDATA[
    .str0 {stroke:#2B2A29;stroke-width:20;stroke-miterlimit:22.9256}
    .fil0 {fill:#2B2A29}
    .fil1 {fill:#7688A1}
    .fil2 {fill:url(#id0)}
   ]]>
  </style>
  <linearGradient id="id0" gradientUnits="userSpaceOnUse" x1="1466.44" y1="1400.24" x2="1466.48" y2="1877.07">
   <stop offset="0" style="stop-opacity:1; stop-color:#DCA99F"/>
   <stop offset="0.00784314" style="stop-opacity:1; stop-color:#CD685C"/>
   <stop offset="0.388235" style="stop-opacity:1; stop-color:#BD2618"/>
   <stop offset="1" style="stop-opacity:1; stop-color:#CD715F"/>
  </linearGradient>
 </defs>
 <g id="Слой_x0020_1">
  <metadata id="CorelCorpID_0Corel-Layer"/>
  <path class="fil0" d="M456.57 1018.3l2070.18 0 0 647.68c0,111.03 -90.83,201.86 -201.86,201.86l-1868.32 0 0 -849.54z"/>
  <path class="fil1 str0" d="M2526.75 1018.3l-2070.18 0 0 509.81 0 339.73 1868.32 0c111.03,0 201.86,-90.83 201.86,-201.86l0 -137.87 0 -509.81z"/>
  <path class="fil2" d="M2526.75 1018.3l-2070.18 0 0 509.81 0 339.73 1868.32 0c111.03,0 201.86,-90.83 201.86,-201.86l0 -137.87 0 -509.81z"/>
 </g>
</svg>
